<svg xmlns="http://www.w3.org/2000/svg" xmlns:xlink="http://www.w3.org/1999/xlink" width="500" zoomAndPan="magnify" viewBox="0 0 375 374.999991" height="500" preserveAspectRatio="xMidYMid meet" version="1.0"><defs><g/><clipPath id="60789c1c9a"><path d="M 80.847656 22.503906 L 293.84375 22.503906 L 293.84375 260 L 80.847656 260 Z M 80.847656 22.503906 " clip-rule="nonzero"/></clipPath></defs><g clip-path="url(#60789c1c9a)"><path fill="#006ac2" d="M 231.214844 257.632812 C 230.691406 257.113281 223.347656 251.1875 214.910156 244.648438 C 210.550781 241.238281 205.953125 237.777344 201.925781 234.792969 C 199.9375 235.125 197.992188 235.3125 196.097656 235.503906 C 193.207031 235.691406 190.363281 235.835938 187.472656 235.835938 C 157.996094 235.835938 131.410156 223.890625 112.074219 204.605469 C 92.785156 185.269531 80.84375 158.683594 80.84375 129.207031 C 80.84375 99.730469 92.785156 73.140625 112.074219 53.808594 C 131.410156 34.519531 157.996094 22.578125 187.472656 22.578125 C 189.839844 22.578125 192.117188 22.671875 194.34375 22.859375 L 194.34375 61.675781 C 202.210938 63.046875 209.175781 66.886719 214.578125 72.289062 C 221.546875 79.253906 225.8125 88.875 225.8125 99.398438 L 225.8125 159.015625 C 225.8125 169.582031 221.546875 179.15625 214.578125 186.121094 C 207.613281 193.085938 197.992188 197.351562 187.472656 197.351562 C 176.953125 197.351562 167.332031 193.085938 160.363281 186.121094 C 153.398438 179.15625 149.132812 169.535156 149.132812 159.015625 L 149.132812 99.398438 C 149.132812 88.828125 153.398438 79.253906 160.363281 72.289062 C 165.765625 66.886719 172.734375 63.046875 180.601562 61.675781 L 180.601562 36.605469 C 157.664062 38.359375 137.097656 48.308594 121.835938 63.523438 C 105.058594 80.394531 94.632812 103.566406 94.632812 129.207031 C 94.632812 154.84375 105.105469 178.019531 121.835938 194.839844 C 138.660156 211.570312 161.832031 221.949219 187.472656 221.949219 C 190.078125 221.949219 192.636719 221.855469 195.054688 221.664062 C 197.660156 221.476562 200.21875 221.144531 202.542969 220.8125 C 204.296875 220.480469 206.097656 220.90625 207.707031 221.949219 C 212.351562 225.265625 218.085938 229.625 223.394531 233.703125 L 226.09375 235.785156 C 225.050781 229.863281 224.011719 223.9375 223.488281 220.859375 C 222.683594 217.824219 224.199219 214.507812 227.234375 212.992188 C 243.203125 205.503906 256.613281 193.46875 265.949219 178.632812 C 275.003906 164.320312 280.261719 147.355469 280.261719 129.109375 C 280.261719 103.472656 269.882812 80.296875 253.15625 63.476562 C 241.023438 51.34375 225.527344 42.527344 208.277344 38.640625 L 208.277344 24.566406 C 229.363281 28.738281 248.273438 39.117188 262.917969 53.757812 C 282.207031 73.09375 294.148438 99.730469 294.148438 129.15625 C 294.148438 150.105469 288.128906 169.628906 277.65625 186.074219 C 267.800781 201.570312 254.101562 214.414062 237.894531 223.132812 C 239.03125 229.769531 239.886719 234.648438 240.597656 238.726562 C 241.734375 245.453125 242.683594 250.574219 242.777344 251 C 243.628906 254.742188 241.308594 258.390625 237.5625 259.292969 C 235.148438 259.910156 232.871094 259.101562 231.214844 257.632812 Z M 192.070312 162.851562 C 188.230469 162.851562 185.199219 159.820312 185.199219 155.980469 C 185.199219 152.140625 188.230469 149.109375 192.070312 149.109375 L 212.019531 149.109375 L 212.019531 136.125 L 192.070312 136.125 C 188.230469 136.125 185.199219 133.089844 185.199219 129.253906 C 185.199219 125.414062 188.230469 122.382812 192.070312 122.382812 L 212.019531 122.382812 L 212.019531 109.300781 L 192.070312 109.300781 C 188.230469 109.300781 185.199219 106.269531 185.199219 102.429688 C 185.199219 98.589844 188.230469 95.558594 192.070312 95.558594 L 211.6875 95.558594 C 210.882812 90.34375 208.371094 85.605469 204.816406 82.050781 C 200.363281 77.597656 194.203125 74.800781 187.472656 74.800781 C 180.742188 74.800781 174.582031 77.597656 170.128906 82.050781 C 165.671875 86.507812 162.875 92.621094 162.875 99.398438 L 162.875 159.015625 C 162.875 165.789062 165.671875 171.90625 170.128906 176.359375 C 174.582031 180.8125 180.742188 183.609375 187.472656 183.609375 C 194.203125 183.609375 200.363281 180.8125 204.816406 176.359375 C 208.371094 172.804688 210.929688 168.066406 211.6875 162.851562 Z M 192.070312 162.851562 " fill-opacity="1" fill-rule="nonzero"/></g><g fill="#006ac2" fill-opacity="1"><g transform="translate(33.465071, 336.191416)"><g><path d="M 47.921875 -48.796875 C 50.578125 -47.492188 51.90625 -46.054688 51.90625 -44.484375 C 51.90625 -43.753906 51.566406 -42.671875 50.890625 -41.234375 L 32.25 -3.375 C 31.75 -2.382812 30.988281 -1.582031 29.96875 -0.96875 C 28.957031 -0.363281 27.910156 -0.0625 26.828125 -0.0625 L 26.15625 -0.0625 C 25.03125 -0.0625 23.957031 -0.363281 22.9375 -0.96875 C 21.925781 -1.582031 21.175781 -2.382812 20.6875 -3.375 L 2.03125 -41.234375 C 1.351562 -42.671875 1.015625 -43.753906 1.015625 -44.484375 C 1.015625 -46.054688 2.34375 -47.492188 5 -48.796875 C 6.488281 -49.566406 7.625 -49.953125 8.40625 -49.953125 C 9.195312 -49.953125 9.796875 -49.859375 10.203125 -49.671875 C 10.609375 -49.492188 10.992188 -49.179688 11.359375 -48.734375 C 11.765625 -48.191406 12.132812 -47.59375 12.46875 -46.9375 C 12.8125 -46.289062 13.679688 -44.421875 15.078125 -41.328125 C 16.472656 -38.242188 17.96875 -34.96875 19.5625 -31.5 C 21.164062 -28.03125 22.675781 -24.75 24.09375 -21.65625 C 25.507812 -18.570312 26.3125 -16.851562 26.5 -16.5 L 40.015625 -46.09375 C 40.378906 -46.957031 40.695312 -47.632812 40.96875 -48.125 C 41.769531 -49.34375 42.753906 -49.953125 43.921875 -49.953125 C 45.097656 -49.953125 46.429688 -49.566406 47.921875 -48.796875 Z M 47.921875 -48.796875 "/></g></g></g><g fill="#006ac2" fill-opacity="1"><g transform="translate(86.382944, 336.191416)"><g><path d="M 1.6875 -17.78125 C 1.6875 -23.1875 3.578125 -27.644531 7.359375 -31.15625 C 11.148438 -34.675781 15.476562 -36.4375 20.34375 -36.4375 C 25.207031 -36.4375 29.507812 -34.6875 33.25 -31.1875 C 36.988281 -27.695312 38.859375 -23.25 38.859375 -17.84375 C 38.859375 -14.101562 37.890625 -10.78125 35.953125 -7.875 C 34.015625 -4.96875 31.660156 -2.828125 28.890625 -1.453125 C 26.117188 -0.078125 23.242188 0.609375 20.265625 0.609375 C 17.296875 0.609375 14.414062 -0.117188 11.625 -1.578125 C 8.832031 -3.046875 6.476562 -5.210938 4.5625 -8.078125 C 2.644531 -10.941406 1.6875 -14.175781 1.6875 -17.78125 Z M 15.8125 -12.9375 C 17.257812 -11.832031 18.722656 -11.28125 20.203125 -11.28125 C 21.691406 -11.28125 23.179688 -11.84375 24.671875 -12.96875 C 26.160156 -14.101562 26.90625 -15.773438 26.90625 -17.984375 C 26.90625 -20.191406 26.207031 -21.832031 24.8125 -22.90625 C 23.414062 -23.988281 21.90625 -24.53125 20.28125 -24.53125 C 18.65625 -24.53125 17.144531 -23.96875 15.75 -22.84375 C 14.351562 -21.71875 13.65625 -20.0625 13.65625 -17.875 C 13.65625 -15.6875 14.375 -14.039062 15.8125 -12.9375 Z M 15.8125 -12.9375 "/></g></g></g><g fill="#006ac2" fill-opacity="1"><g transform="translate(126.933038, 336.191416)"><g><path d="M 2.703125 -29.671875 C 2.703125 -30.710938 2.734375 -31.488281 2.796875 -32 C 2.867188 -32.519531 3.0625 -33.117188 3.375 -33.796875 C 4.007812 -34.960938 5.769531 -35.546875 8.65625 -35.546875 C 10.8125 -35.546875 12.34375 -35.164062 13.25 -34.40625 C 14.007812 -33.769531 14.414062 -32.800781 14.46875 -31.5 C 14.507812 -31.050781 14.53125 -30.394531 14.53125 -29.53125 L 14.53125 -5.875 C 14.53125 -4.84375 14.492188 -4.066406 14.421875 -3.546875 C 14.359375 -3.023438 14.148438 -2.425781 13.796875 -1.75 C 13.203125 -0.582031 11.460938 0 8.578125 0 C 5.742188 0 4.007812 -0.609375 3.375 -1.828125 C 3.0625 -2.503906 2.867188 -3.085938 2.796875 -3.578125 C 2.734375 -4.078125 2.703125 -4.867188 2.703125 -5.953125 Z M 13.8125 -42.203125 C 13.476562 -41.554688 12.882812 -41.097656 12.03125 -40.828125 C 11.175781 -40.554688 10.035156 -40.421875 8.609375 -40.421875 C 7.191406 -40.421875 6.054688 -40.554688 5.203125 -40.828125 C 4.347656 -41.097656 3.75 -41.570312 3.40625 -42.25 C 3.070312 -42.925781 2.867188 -43.519531 2.796875 -44.03125 C 2.734375 -44.550781 2.703125 -45.328125 2.703125 -46.359375 C 2.703125 -47.398438 2.734375 -48.179688 2.796875 -48.703125 C 2.867188 -49.222656 3.0625 -49.796875 3.375 -50.421875 C 4.007812 -51.640625 5.769531 -52.25 8.65625 -52.25 C 11.488281 -52.25 13.203125 -51.640625 13.796875 -50.421875 C 14.148438 -49.742188 14.359375 -49.144531 14.421875 -48.625 C 14.492188 -48.113281 14.53125 -47.335938 14.53125 -46.296875 C 14.53125 -45.265625 14.492188 -44.488281 14.421875 -43.96875 C 14.359375 -43.445312 14.15625 -42.859375 13.8125 -42.203125 Z M 13.8125 -42.203125 "/></g></g></g><g fill="#006ac2" fill-opacity="1"><g transform="translate(144.166824, 336.191416)"><g><path d="M 13.859375 -17.8125 C 13.859375 -15.894531 14.488281 -14.40625 15.75 -13.34375 C 17.007812 -12.289062 18.347656 -11.765625 19.765625 -11.765625 C 21.191406 -11.765625 22.523438 -12.179688 23.765625 -13.015625 C 25.003906 -13.847656 26.003906 -14.265625 26.765625 -14.265625 C 28.117188 -14.265625 29.765625 -13.070312 31.703125 -10.6875 C 32.734375 -9.375 33.25 -8.203125 33.25 -7.171875 C 33.25 -5.453125 32.007812 -3.847656 29.53125 -2.359375 C 26.96875 -0.554688 23.816406 0.34375 20.078125 0.34375 C 15.890625 0.34375 11.851562 -1.164062 7.96875 -4.1875 C 6.125 -5.632812 4.613281 -7.5625 3.4375 -9.96875 C 2.269531 -12.382812 1.6875 -15.046875 1.6875 -17.953125 C 1.6875 -20.859375 2.269531 -23.492188 3.4375 -25.859375 C 4.613281 -28.222656 6.125 -30.125 7.96875 -31.5625 C 11.71875 -34.539062 15.707031 -36.03125 19.9375 -36.03125 C 21.65625 -36.03125 23.320312 -35.789062 24.9375 -35.3125 C 26.5625 -34.84375 27.757812 -34.382812 28.53125 -33.9375 L 29.609375 -33.25 C 30.421875 -32.707031 31.050781 -32.28125 31.5 -31.96875 C 32.664062 -31.070312 33.25 -30.046875 33.25 -28.890625 C 33.25 -27.742188 32.78125 -26.453125 31.84375 -25.015625 C 30.21875 -22.535156 28.660156 -21.296875 27.171875 -21.296875 C 26.316406 -21.296875 25.097656 -21.789062 23.515625 -22.78125 C 22.710938 -23.539062 21.554688 -23.921875 20.046875 -23.921875 C 18.535156 -23.921875 17.125 -23.378906 15.8125 -22.296875 C 14.507812 -21.222656 13.859375 -19.726562 13.859375 -17.8125 Z M 13.859375 -17.8125 "/></g></g></g><g fill="#006ac2" fill-opacity="1"><g transform="translate(179.107492, 336.191416)"><g><path d="M 37.046875 -22.0625 C 37.046875 -19.289062 36.359375 -17.238281 34.984375 -15.90625 C 33.609375 -14.582031 32.085938 -13.921875 30.421875 -13.921875 L 14.390625 -13.921875 C 14.390625 -12.660156 15.132812 -11.601562 16.625 -10.75 C 18.113281 -9.894531 19.601562 -9.46875 21.09375 -9.46875 C 23.707031 -9.46875 25.753906 -9.738281 27.234375 -10.28125 L 27.984375 -10.546875 C 29.066406 -11.035156 29.96875 -11.28125 30.6875 -11.28125 C 32.125 -11.28125 33.363281 -10.269531 34.40625 -8.25 C 34.988281 -7.03125 35.28125 -5.992188 35.28125 -5.140625 C 35.28125 -1.128906 30.484375 0.875 20.890625 0.875 C 17.554688 0.875 14.59375 0.300781 12 -0.84375 C 9.40625 -1.988281 7.390625 -3.507812 5.953125 -5.40625 C 3.109375 -9.050781 1.6875 -13.128906 1.6875 -17.640625 C 1.6875 -23.316406 3.519531 -27.851562 7.1875 -31.25 C 10.863281 -34.65625 15.453125 -36.359375 20.953125 -36.359375 C 27.210938 -36.359375 31.8125 -34.148438 34.75 -29.734375 C 36.28125 -27.390625 37.046875 -24.832031 37.046875 -22.0625 Z M 22.78125 -20.078125 C 24.488281 -20.078125 25.34375 -20.796875 25.34375 -22.234375 C 25.34375 -23.273438 24.945312 -24.109375 24.15625 -24.734375 C 23.375 -25.367188 22.25 -25.6875 20.78125 -25.6875 C 19.320312 -25.6875 17.867188 -25.085938 16.421875 -23.890625 C 14.984375 -22.703125 14.265625 -21.429688 14.265625 -20.078125 Z M 22.78125 -20.078125 "/></g></g></g><g fill="#006ac2" fill-opacity="1"><g transform="translate(217.832822, 336.191416)"><g><path d="M 25.953125 -50.15625 C 32.617188 -50.15625 38.410156 -47.742188 43.328125 -42.921875 C 48.242188 -38.097656 50.703125 -32.113281 50.703125 -24.96875 C 50.703125 -17.832031 48.359375 -11.75 43.671875 -6.71875 C 38.984375 -1.695312 33.210938 0.8125 26.359375 0.8125 C 19.515625 0.8125 13.691406 -1.664062 8.890625 -6.625 C 4.085938 -11.582031 1.6875 -17.484375 1.6875 -24.328125 C 1.6875 -28.066406 2.363281 -31.570312 3.71875 -34.84375 C 5.070312 -38.113281 6.875 -40.851562 9.125 -43.0625 C 11.375 -45.269531 13.960938 -47.003906 16.890625 -48.265625 C 19.828125 -49.523438 22.847656 -50.15625 25.953125 -50.15625 Z M 13.65625 -24.671875 C 13.65625 -20.660156 14.945312 -17.40625 17.53125 -14.90625 C 20.125 -12.40625 23.019531 -11.15625 26.21875 -11.15625 C 29.425781 -11.15625 32.3125 -12.367188 34.875 -14.796875 C 37.445312 -17.234375 38.734375 -20.5 38.734375 -24.59375 C 38.734375 -28.695312 37.4375 -31.988281 34.84375 -34.46875 C 32.25 -36.945312 29.351562 -38.1875 26.15625 -38.1875 C 22.957031 -38.1875 20.070312 -36.9375 17.5 -34.4375 C 14.9375 -31.9375 13.65625 -28.679688 13.65625 -24.671875 Z M 13.65625 -24.671875 "/></g></g></g><g fill="#006ac2" fill-opacity="1"><g transform="translate(270.210014, 336.191416)"><g><path d="M 18.515625 -0.140625 C 13.960938 -0.140625 10.1875 -1.863281 7.1875 -5.3125 C 4.195312 -8.757812 2.703125 -12.957031 2.703125 -17.90625 L 2.703125 -29.734375 C 2.703125 -30.816406 2.734375 -31.601562 2.796875 -32.09375 C 2.867188 -32.59375 3.0625 -33.179688 3.375 -33.859375 C 4.007812 -35.078125 5.769531 -35.6875 8.65625 -35.6875 C 11.8125 -35.6875 13.65625 -34.832031 14.1875 -33.125 C 14.457031 -32.40625 14.59375 -31.253906 14.59375 -29.671875 L 14.59375 -17.84375 C 14.59375 -16 15.125 -14.554688 16.1875 -13.515625 C 17.25 -12.484375 18.664062 -11.96875 20.4375 -11.96875 C 22.21875 -11.96875 23.660156 -12.503906 24.765625 -13.578125 C 25.867188 -14.660156 26.421875 -16.082031 26.421875 -17.84375 L 26.421875 -29.8125 C 26.421875 -30.84375 26.453125 -31.617188 26.515625 -32.140625 C 26.585938 -32.660156 26.804688 -33.257812 27.171875 -33.9375 C 27.753906 -35.101562 29.488281 -35.6875 32.375 -35.6875 C 35.21875 -35.6875 36.953125 -35.078125 37.578125 -33.859375 C 37.898438 -33.179688 38.09375 -32.582031 38.15625 -32.0625 C 38.226562 -31.550781 38.265625 -30.773438 38.265625 -29.734375 L 38.265625 -5.8125 C 38.265625 -4.820312 38.226562 -4.066406 38.15625 -3.546875 C 38.09375 -3.023438 37.878906 -2.453125 37.515625 -1.828125 C 36.835938 -0.648438 35.101562 -0.0625 32.3125 -0.0625 C 29.5625 -0.0625 27.867188 -0.601562 27.234375 -1.6875 C 26.785156 -2.457031 26.5625 -3.382812 26.5625 -4.46875 C 26.382812 -4.144531 25.976562 -3.691406 25.34375 -3.109375 C 24.71875 -2.523438 24.109375 -2.03125 23.515625 -1.625 C 21.984375 -0.632812 20.316406 -0.140625 18.515625 -0.140625 Z M 18.515625 -0.140625 "/></g></g></g><g fill="#006ac2" fill-opacity="1"><g transform="translate(311.1656, 336.191416)"><g><path d="M 23.390625 -23.65625 L 19 -23.921875 L 19 -14.59375 C 19 -13.382812 19.1875 -12.507812 19.5625 -11.96875 C 19.945312 -11.425781 20.664062 -11.15625 21.71875 -11.15625 C 22.78125 -11.15625 23.59375 -11.117188 24.15625 -11.046875 C 24.726562 -10.984375 25.328125 -10.769531 25.953125 -10.40625 C 26.992188 -9.820312 27.515625 -8.3125 27.515625 -5.875 C 27.515625 -3.039062 26.882812 -1.304688 25.625 -0.671875 C 24.945312 -0.359375 24.347656 -0.164062 23.828125 -0.09375 C 23.304688 -0.03125 22.550781 0 21.5625 0 C 16.875 0 13.3125 -1.054688 10.875 -3.171875 C 8.445312 -5.296875 7.234375 -8.878906 7.234375 -13.921875 L 7.234375 -23.921875 C 6.378906 -23.785156 5.453125 -23.71875 4.453125 -23.71875 C 3.460938 -23.71875 2.640625 -24.101562 1.984375 -24.875 C 1.335938 -25.644531 1.015625 -26.953125 1.015625 -28.796875 C 1.015625 -30.640625 1.125 -31.976562 1.34375 -32.8125 C 1.570312 -33.644531 1.890625 -34.242188 2.296875 -34.609375 C 3.015625 -35.191406 3.914062 -35.484375 5 -35.484375 L 7.234375 -35.21875 L 7.234375 -42.171875 C 7.234375 -43.210938 7.265625 -43.976562 7.328125 -44.46875 C 7.398438 -44.96875 7.613281 -45.507812 7.96875 -46.09375 C 8.5625 -47.21875 10.300781 -47.78125 13.1875 -47.78125 C 16.25 -47.78125 18.070312 -46.945312 18.65625 -45.28125 C 18.882812 -44.5625 19 -43.414062 19 -41.84375 L 19 -35.21875 C 20.976562 -35.394531 22.472656 -35.484375 23.484375 -35.484375 C 24.503906 -35.484375 25.269531 -35.445312 25.78125 -35.375 C 26.300781 -35.3125 26.898438 -35.101562 27.578125 -34.75 C 28.742188 -34.15625 29.328125 -32.414062 29.328125 -29.53125 C 29.328125 -26.695312 28.722656 -24.960938 27.515625 -24.328125 C 26.835938 -24.015625 26.238281 -23.820312 25.71875 -23.75 C 25.195312 -23.6875 24.421875 -23.65625 23.390625 -23.65625 Z M 23.390625 -23.65625 "/></g></g></g></svg>